<svg width="24" height="24" fill="none" xmlns="http://www.w3.org/2000/svg"><path fill-rule="evenodd" clip-rule="evenodd" d="M7.43 5.143a.571.571 0 0 0-.572.571V8A.571.571 0 1 0 8 8V5.714a.571.571 0 0 0-.572-.571ZM7.43 4a1.714 1.714 0 0 1 1.713 1.714V8a1.714 1.714 0 1 1-3.428 0V5.714A1.714 1.714 0 0 1 7.429 4Z" fill="#303030"/><path fill-rule="evenodd" clip-rule="evenodd" d="M8 6.857c0-.315.256-.571.571-.571h12.572a.571.571 0 0 1 0 1.143H8.57A.571.571 0 0 1 8 6.857ZM2.286 6.857c0-.315.256-.571.572-.571h3.428a.571.571 0 1 1 0 1.143H2.858a.571.571 0 0 1-.572-.572ZM7.43 16.571a.571.571 0 0 0-.572.572v2.286a.572.572 0 0 0 1.143 0v-2.286a.572.572 0 0 0-.572-.572Zm-1.213-.64a1.714 1.714 0 0 1 2.926 1.212v2.286a1.714 1.714 0 0 1-3.428 0v-2.286c0-.455.18-.89.502-1.212Z" fill="#303030"/><path fill-rule="evenodd" clip-rule="evenodd" d="M8 18.286c0-.316.256-.572.571-.572h12.572a.571.571 0 0 1 0 1.143H8.57A.571.571 0 0 1 8 18.286ZM2.286 18.286c0-.316.256-.572.572-.572h3.428a.571.571 0 1 1 0 1.143H2.858a.571.571 0 0 1-.572-.571ZM16.572 10.857a.572.572 0 0 0-.572.572v2.285a.572.572 0 0 0 1.143 0V11.43a.572.572 0 0 0-.571-.572Zm0-1.143a1.714 1.714 0 0 1 1.714 1.715v2.285a1.714 1.714 0 1 1-3.429 0V11.43a1.714 1.714 0 0 1 1.715-1.715Z" fill="#303030"/><path fill-rule="evenodd" clip-rule="evenodd" d="M2.286 12.571c0-.315.256-.571.572-.571h12.571a.571.571 0 1 1 0 1.143H2.858a.571.571 0 0 1-.572-.572ZM17.144 12.571c0-.315.255-.571.571-.571h3.429a.571.571 0 0 1 0 1.143h-3.429a.571.571 0 0 1-.571-.572Z" fill="#303030"/></svg>