<svg xmlns="http://www.w3.org/2000/svg" width="79" height="79"><g style="stroke:#373c3d;stroke-width:2px;fill:none"><circle cx="39.5" cy="39.5" r="39.5" style="stroke:none" stroke="none"/><circle cx="39.5" cy="39.5" r="38.5" style="fill:none"/></g><g transform="translate(-12.991 -11.965)"><rect width="28" height="29" rx="4" transform="translate(42.991 39.965)" style="fill:#2bdf9d;opacity:.402"/><path d="m60.926 48.832 1.177-2.579 2.579-1.177-2.579-1.176-1.177-2.579L59.75 43.9l-2.579 1.176 2.579 1.177ZM46.53 48.832l1.177-2.579 2.579-1.177-2.579-1.176-1.177-2.579-1.176 2.579-2.579 1.176 2.579 1.177ZM60.926 55.717l-1.177 2.579-2.578 1.176 2.579 1.177 1.177 2.579 1.177-2.579 2.579-1.177-2.579-1.177ZM58.06 51.486l-3.543-3.543a1.27 1.27 0 0 0-1.778 0L38.757 61.926a1.247 1.247 0 0 0 0 1.765l3.543 3.543a1.242 1.242 0 0 0 .889.376 1.282 1.282 0 0 0 .889-.363L58.06 53.263a1.262 1.262 0 0 0 0-1.777Zm-4.431-.876 1.764 1.764-1.465 1.465-1.765-1.765ZM43.193 64.592l-1.77-1.765 8.976-8.988 1.765 1.765Z"/></g></svg>