<svg xmlns="http://www.w3.org/2000/svg" width="1204" height="245"><defs><clipPath id="a"><path style="fill:#fff" d="M0 0h1204v245H0z"/></clipPath><style>.d{fill:none;stroke-linecap:round}.d{stroke:#e0e0e0}.e,.k{fill:#2bdf9d}.k{stroke-width:4px}.k{stroke:#fff}</style></defs><g style="clip-path:url(#a)"><g style="opacity:.4"><path class="d" d="M-24.521 223.213C227.344-62.929 848.41-81.476 1174.11 211.291"/><path class="d" d="M-16 104.4C232.284-29.425 844.519-38.1 1165.59 98.822"/><path class="d" d="M141.244 223.213c182.2-286.142 631.487-304.689 867.106-11.922"/><path class="d" d="M316.093 223.213C424.814-62.929 692.905-81.476 833.5 211.291"/><path class="d" d="M470.823 223.213c43.7-286.142 151.442-304.689 207.947-11.922"/></g><path class="e" d="m297.07 84.64-2.243 2.218q-2.479 2.432-6.435 6.257a4.251 4.251 0 0 1-5.91 0l-6.6-6.416q-1.245-1.221-2.082-2.059a16.451 16.451 0 1 1 23.265 0Zm-6.909-11.113a4.724 4.724 0 1 0-1.384 3.34 4.723 4.723 0 0 0 1.384-3.34ZM169.515 51.165l-1.681 1.663q-1.86 1.823-4.825 4.691a3.186 3.186 0 0 1-4.43 0l-4.945-4.81q-.933-.916-1.561-1.544a12.333 12.333 0 1 1 17.442 0Zm-5.18-8.332a3.541 3.541 0 1 0-1.037 2.5 3.541 3.541 0 0 0 1.037-2.499Z"/><path d="m400.29 47.111-1.181 1.168q-1.307 1.281-3.389 3.3a2.24 2.24 0 0 1-3.113 0l-3.473-3.379q-.656-.643-1.1-1.085a8.664 8.664 0 1 1 12.253 0Zm-3.639-5.853a2.488 2.488 0 1 0-.729 1.759 2.486 2.486 0 0 0 .729-1.758Z" style="opacity:.278;fill:#2bdf9d"/><path d="m784.09 68.363-1.639 1.622q-1.813 1.778-4.706 4.575a3.108 3.108 0 0 1-4.321 0l-4.824-4.691q-.909-.893-1.522-1.506a12.029 12.029 0 1 1 17.011 0Zm-5.052-8.126a3.453 3.453 0 1 0-1.011 2.442 3.452 3.452 0 0 0 1.011-2.442Z" style="fill:#37e7ff"/><path d="m847.465 148.4-2.693 2.663q-2.976 2.919-7.725 7.512a5.1 5.1 0 0 1-7.095 0l-7.918-7.7q-1.494-1.467-2.5-2.472a19.749 19.749 0 1 1 27.931 0Zm-8.3-13.342a5.671 5.671 0 1 0-1.661 4.01 5.666 5.666 0 0 0 1.666-4.008Z" style="opacity:.249;fill:#37e7ff"/><path d="m1017.66 74.68-1.8 1.775c-1.32 1.3-3.03 2.967-5.15 5.008a3.387 3.387 0 0 1-2.36.956 3.429 3.429 0 0 1-2.37-.956l-5.27-5.135c-.67-.652-1.223-1.2-1.67-1.648a13.162 13.162 0 1 1 18.62 0Zm-5.53-8.894a3.785 3.785 0 1 0-1.11 2.673 3.779 3.779 0 0 0 1.11-2.673Z" style="opacity:.229;fill:#37e7ff"/><path d="M1191.2 72.824c-50.84-11.535-132.81-48.377-251.17-22.541-113.758 24.833-151.266 98.34-300.607 126.734-121.994 23.193-227.644-37.941-366.8-28.394C172.1 155.521 89.591 229.29 50.334 236.7S5 225.853 5 225.853" style="stroke-width:4px;stroke:#2bdf9d;fill:none;stroke-linecap:round"/><circle class="k" cx="8.494" cy="8.494" r="8.494" transform="translate(107.821 194.937)"/><circle class="k" cx="8.494" cy="8.494" r="8.494" transform="translate(254.186 138.539)"/><circle class="k" cx="8.494" cy="8.494" r="8.494" transform="translate(452.563 159.528)"/><circle class="k" cx="8.494" cy="8.494" r="8.494" transform="translate(671.37 159.528)"/><circle class="k" cx="8.494" cy="8.494" r="8.494" transform="translate(856.99 67.727)"/><circle class="k" cx="8.494" cy="8.494" r="8.494" transform="translate(1077.206 38.235)"/></g></svg>