<svg xmlns="http://www.w3.org/2000/svg" width="79" height="79"><g style="stroke:#373c3d;stroke-width:2px;fill:none"><circle cx="39.5" cy="39.5" r="39.5" style="stroke:none" stroke="none"/><circle cx="39.5" cy="39.5" r="38.5" style="fill:none"/></g><g transform="translate(-12.991 -11.965)"><rect width="28" height="29" rx="4" transform="translate(42.991 39.965)" style="fill:#2bdf9d;opacity:.402"/><path d="M37.991 40.61v2.644h29.09V40.61a2.646 2.646 0 0 0-2.644-2.645H40.636a2.646 2.646 0 0 0-2.645 2.645Zm3.976 1.332a1.321 1.321 0 1 1 1.324-1.321 1.321 1.321 0 0 1-1.324 1.321Zm3.964 0a1.321 1.321 0 1 1 1.321-1.321 1.321 1.321 0 0 1-1.322 1.32ZM37.991 44.576v18.512a2.645 2.645 0 0 0 2.645 2.645h23.8a2.645 2.645 0 0 0 2.645-2.645V44.576Zm26.446 18.512H40.636V47.221h23.8Z"/><path d="m48.569 60.444.926-.926.926-.926-1.719-1.719-1.722-1.718 1.719-1.719 1.719-1.719-.926-.926-.923-.925-2.644 2.645-2.645 2.644 2.645 2.645ZM54.652 58.593l.926.926.926.926 2.648-2.645 2.645-2.645-2.645-2.644-2.649-2.645-.926.926-.926.926 1.719 1.719 1.719 1.719-1.719 1.719Z"/><path d="m48.569 60.444.926-.926.926-.926-1.719-1.719-1.722-1.718 1.719-1.719 1.719-1.719-.926-.926-.923-.925-2.644 2.645-2.645 2.644 2.645 2.645ZM54.652 58.593l.926.926.926.926 2.648-2.645 2.645-2.645-2.645-2.644-2.649-2.645-.926.926-.926.926 1.719 1.719 1.719 1.719-1.719 1.719Z"/></g></svg>