<svg width="130" height="31" fill="none" xmlns="http://www.w3.org/2000/svg"><g clip-path="url('#clip0_1204_3371')"><path d="M15 .903C7.047.903.6 7.35.6 15.303s6.447 14.4 14.4 14.4 14.4-6.447 14.4-14.4S22.953.903 15 .903Zm3.41 9.951h-2.164c-.256 0-.541.338-.541.786v1.563h2.707l-.41 2.23h-2.297v6.69H13.15v-6.69h-2.317v-2.23h2.317v-1.31c0-1.882 1.305-3.41 3.096-3.41h2.165v2.371Z" fill="#fff"/></g><g clip-path="url('#clip1_1204_3371')"><path d="M115 .903c-7.953 0-14.4 6.447-14.4 14.4s6.447 14.4 14.4 14.4 14.4-6.447 14.4-14.4-6.447-14.4-14.4-14.4Zm5.857 11.796c.006.123.008.246.008.366 0 3.75-2.852 8.072-8.069 8.072a8.004 8.004 0 0 1-4.347-1.275c.221.027.447.037.677.037a5.681 5.681 0 0 0 3.522-1.213 2.843 2.843 0 0 1-2.649-1.968c.424.08.862.064 1.279-.05a2.839 2.839 0 0 1-2.275-2.78v-.035c.382.211.82.34 1.285.355a2.834 2.834 0 0 1-.877-3.789 8.067 8.067 0 0 0 5.845 2.966 2.833 2.833 0 0 1 1.422-3.151 2.837 2.837 0 0 1 3.411.563 5.688 5.688 0 0 0 1.8-.688 2.847 2.847 0 0 1-1.246 1.57 5.703 5.703 0 0 0 1.629-.448 5.767 5.767 0 0 1-1.415 1.468Z" fill="#fff"/></g><g clip-path="url('#clip2_1204_3371')"><path d="M69.5 15.303a4.5 4.5 0 1 1-9 0c0-.256.027-.507.073-.75H59v5.996c0 .417.337.754.754.754h10.493A.754.754 0 0 0 71 20.55v-5.996h-1.574c.047.243.074.494.074.75Zm-4.5 3a3 3 0 1 0-.002-6 3 3 0 0 0 .002 6Zm3.6-6.15h1.798a.451.451 0 0 0 .452-.45V9.905a.452.452 0 0 0-.452-.452H68.6a.451.451 0 0 0-.452.452v1.798c.002.248.204.45.452.45ZM65 .903a14.4 14.4 0 1 0 0 28.8 14.4 14.4 0 0 0 0-28.8Zm7.5 20.234c0 .916-.75 1.666-1.667 1.666H59.166c-.916 0-1.666-.75-1.666-1.666V9.47c0-.917.75-1.667 1.666-1.667h11.667c.917 0 1.667.75 1.667 1.667v11.667Z" fill="#fff"/></g><defs><clipPath id="clip0_1204_3371"><path fill="#fff" transform="translate(0 .303)" d="M0 0h30v30H0z"/></clipPath><clipPath id="clip1_1204_3371"><path fill="#fff" transform="translate(100 .303)" d="M0 0h30v30H0z"/></clipPath><clipPath id="clip2_1204_3371"><path fill="#fff" transform="translate(50 .303)" d="M0 0h30v30H0z"/></clipPath></defs></svg>