<svg width="130" height="30" fill="none" xmlns="http://www.w3.org/2000/svg"><g clip-path="url('#clip0_1204_3151')"><path d="M15 .6C7.047.6.6 7.047.6 15S7.047 29.4 15 29.4 29.4 22.953 29.4 15 22.953.6 15 .6Zm3.41 9.951h-2.164c-.256 0-.541.338-.541.786V12.9h2.707l-.41 2.23h-2.297v6.69H13.15v-6.69h-2.317V12.9h2.317v-1.31c0-1.882 1.305-3.41 3.096-3.41h2.165v2.371Z" fill="#fff"/></g><g clip-path="url('#clip1_1204_3151')"><path d="M115 .6c-7.953 0-14.4 6.447-14.4 14.4s6.447 14.4 14.4 14.4 14.4-6.447 14.4-14.4S122.953.6 115 .6Zm5.857 11.796c.006.123.008.246.008.366 0 3.75-2.852 8.072-8.069 8.072a8.004 8.004 0 0 1-4.347-1.275c.221.027.447.037.677.037a5.681 5.681 0 0 0 3.522-1.213 2.844 2.844 0 0 1-2.649-1.968c.424.08.862.063 1.279-.05a2.839 2.839 0 0 1-2.275-2.78v-.035c.382.211.82.34 1.285.355a2.834 2.834 0 0 1-.877-3.789 8.067 8.067 0 0 0 5.845 2.966 2.833 2.833 0 0 1 1.422-3.152 2.836 2.836 0 0 1 3.411.564 5.688 5.688 0 0 0 1.8-.688 2.847 2.847 0 0 1-1.246 1.57 5.703 5.703 0 0 0 1.629-.448 5.769 5.769 0 0 1-1.415 1.468Z" fill="#fff"/></g><g clip-path="url('#clip2_1204_3151')"><path d="M69.5 15a4.5 4.5 0 1 1-9 0c0-.256.027-.507.073-.75H59v5.996c0 .417.337.754.754.754h10.493a.755.755 0 0 0 .753-.754V14.25h-1.574c.047.243.074.494.074.75ZM65 18a3 3 0 1 0-.002-6A3 3 0 0 0 65 18Zm3.6-6.15h1.798a.452.452 0 0 0 .452-.45V9.602a.452.452 0 0 0-.452-.452H68.6a.451.451 0 0 0-.452.452V11.4c.002.248.204.45.452.45ZM65 .6a14.4 14.4 0 1 0 0 28.8A14.4 14.4 0 0 0 65 .6Zm7.5 20.234c0 .916-.75 1.666-1.667 1.666H59.166c-.916 0-1.666-.75-1.666-1.666V9.167c0-.917.75-1.667 1.666-1.667h11.667c.917 0 1.667.75 1.667 1.667v11.667Z" fill="#fff"/></g><defs><clipPath id="clip0_1204_3151"><path fill="#fff" d="M0 0h30v30H0z"/></clipPath><clipPath id="clip1_1204_3151"><path fill="#fff" transform="translate(100)" d="M0 0h30v30H0z"/></clipPath><clipPath id="clip2_1204_3151"><path fill="#fff" transform="translate(50)" d="M0 0h30v30H0z"/></clipPath></defs></svg>